<svg width="176" height="176" viewBox="0 0 176 176" fill="none" xmlns="http://www.w3.org/2000/svg">
<g clip-path="url(#clip0_150_10638)">
<path d="M25.5 0.5C11.7109 0.5 0.5 11.7109 0.5 25.5V150.5C0.5 164.289 11.7109 175.5 25.5 175.5H150.5C164.289 175.5 175.5 164.289 175.5 150.5V25.5C175.5 11.7109 164.289 0.5 150.5 0.5H25.5ZM50.5 31.75C60.8516 31.75 69.25 40.1484 69.25 50.5C69.25 60.8516 60.8516 69.25 50.5 69.25C40.1484 69.25 31.75 60.8516 31.75 50.5C31.75 40.1484 40.1484 31.75 50.5 31.75ZM106.75 75.5C110.031 75.5 113.039 77.2188 114.758 79.9922L149.133 136.242C150.891 139.133 150.969 142.766 149.328 145.734C147.688 148.703 144.523 150.5 141.125 150.5H34.875C31.3984 150.5 28.1562 148.547 26.5547 145.461C24.9531 142.375 25.1875 138.625 27.1797 135.773L49.0547 104.523C50.8125 102.023 53.6641 100.539 56.75 100.539C59.8359 100.539 62.6875 102.023 64.4453 104.523L74.7578 119.289L98.7422 80.0312C100.461 77.2578 103.469 75.5391 106.75 75.5391V75.5Z" fill="white"/>
</g>
<defs>
<clipPath id="clip0_150_10638">
<rect width="176" height="176" fill="white"/>
</clipPath>
</defs>
</svg>
