<svg width="18" height="18" viewBox="0 0 18 18" fill="none" xmlns="http://www.w3.org/2000/svg">
<path d="M2.56289 0.44414C1.97695 -0.141797 1.02539 -0.141797 0.439453 0.44414C-0.146484 1.03008 -0.146484 1.98164 0.439453 2.56758L6.88008 9.00352L0.44414 15.4441C-0.141797 16.0301 -0.141797 16.9816 0.44414 17.5676C1.03008 18.1535 1.98164 18.1535 2.56758 17.5676L9.00352 11.127L15.4441 17.5629C16.0301 18.1488 16.9816 18.1488 17.5676 17.5629C18.1535 16.977 18.1535 16.0254 17.5676 15.4395L11.127 9.00352L17.5629 2.56289C18.1488 1.97695 18.1488 1.02539 17.5629 0.439453C16.977 -0.146484 16.0254 -0.146484 15.4395 0.439453L9.00352 6.88008L2.56289 0.44414Z" fill="white"/>
</svg>
