<svg width="35" height="35" viewBox="0 0 35 35" fill="none" xmlns="http://www.w3.org/2000/svg">
<path d="M8.5836 11.7609L7.41485 10.5922C6.6336 9.81094 6.6336 8.54219 7.41485 7.76094L14.5836 0.585938C15.3648 -0.195312 16.6336 -0.195312 17.4148 0.585938L18.5836 1.76094C19.3648 2.54219 19.3648 3.81094 18.5836 4.59219L11.4148 11.7609C10.6336 12.5422 9.36485 12.5422 8.5836 11.7609ZM15.2336 15.4047L13.2711 13.4422L20.2711 6.44219L27.7336 13.9047L20.7336 20.9047L18.7711 18.9422L4.2711 33.4422C3.2961 34.4172 1.71485 34.4172 0.733596 33.4422C-0.247654 32.4672 -0.241404 30.8859 0.733596 29.9047L15.2336 15.4047ZM22.4148 25.5859C21.6336 24.8047 21.6336 23.5359 22.4148 22.7547L29.5836 15.5859C30.3648 14.8047 31.6336 14.8047 32.4148 15.5859L33.5836 16.7547C34.3648 17.5359 34.3648 18.8047 33.5836 19.5859L26.4148 26.7609C25.6336 27.5422 24.3648 27.5422 23.5836 26.7609L22.4148 25.5922V25.5859Z" fill="white"/>
</svg>
