<svg width="100" height="50" viewBox="0 0 100 50" fill="none" xmlns="http://www.w3.org/2000/svg">
<g clip-path="url(#clip0_197_450)">
<rect width="100" height="50" rx="25" fill="#313131"/>
<rect x="0.5" y="0.5" width="99" height="49" rx="24.5" stroke="#B3B3B3" stroke-opacity="0.3"/>
<circle cx="74" cy="25" r="20" fill="url(#paint0_linear_197_450)"/>
<g clip-path="url(#clip1_197_450)">
<path d="M78.0574 13.7062C84.2951 15.9473 87.5342 22.8191 85.2931 29.0569C83.0519 35.2946 76.1801 38.5337 69.9424 36.2926C66.9073 35.2021 64.5813 33.0116 63.2526 30.3327C63.0415 29.9082 63.1216 29.3941 63.4483 29.0532C63.775 28.7123 64.2888 28.6131 64.7217 28.8084C64.9315 28.9037 65.1445 28.9902 65.3651 29.0695C69.8471 30.6798 74.7881 28.3508 76.3984 23.8688C77.5412 20.6882 76.701 17.2733 74.5064 14.9805C74.1763 14.6378 74.1022 14.1231 74.3152 13.6965C74.5282 13.27 74.9847 13.0256 75.4562 13.0854C76.3285 13.1946 77.2016 13.3987 78.0574 13.7062Z" fill="white"/>
</g>
<path d="M24.5 12.0047C24.8938 12.0047 25.2641 12.2109 25.4656 12.5531L28.0672 16.8938L32.9797 15.6609C33.3641 15.5672 33.7719 15.6797 34.0484 15.9563C34.325 16.2328 34.4375 16.6453 34.3438 17.025L33.1109 21.9328L37.4563 24.5344C37.7938 24.7359 38.0047 25.1062 38.0047 25.5C38.0047 25.8938 37.7984 26.2641 37.4563 26.4656L33.1109 29.0719L34.3438 33.9797C34.4375 34.3641 34.325 34.7719 34.0484 35.0484C33.7719 35.325 33.3594 35.4422 32.9797 35.3484L28.0719 34.1156L25.4703 38.4609C25.2688 38.7984 24.8984 39.0094 24.5047 39.0094C24.1109 39.0094 23.7406 38.8031 23.5391 38.4609L20.9328 34.1156L16.025 35.3484C15.6406 35.4422 15.2375 35.3297 14.9563 35.0531C14.675 34.7766 14.5625 34.3641 14.6562 33.9797L15.8844 29.0719L11.5437 26.4703C11.2062 26.2641 11 25.8984 11 25.5047C11 25.1109 11.2063 24.7406 11.5484 24.5391L15.8891 21.9375L14.6562 17.025C14.5625 16.6406 14.6703 16.2375 14.9516 15.9563C15.2328 15.675 15.6406 15.5672 16.025 15.6609L20.9328 16.8891L23.5344 12.5484L23.6188 12.4266C23.8297 12.1594 24.1531 12 24.5 12V12.0047ZM24.5 18.7547C20.7734 18.7547 17.75 21.7781 17.75 25.5047C17.75 29.2313 20.7734 32.2547 24.5 32.2547C28.2266 32.2547 31.25 29.2313 31.25 25.5047C31.25 21.7781 28.2266 18.7547 24.5 18.7547ZM24.5 30.0047C22.0156 30.0047 20 27.9891 20 25.5047C20 23.0203 22.0156 21.0047 24.5 21.0047C26.9844 21.0047 29 23.0203 29 25.5047C29 27.9891 26.9844 30.0047 24.5 30.0047Z" fill="white" fill-opacity="0.2"/>
</g>
<defs>
<linearGradient id="paint0_linear_197_450" x1="70" y1="10.5" x2="74" y2="26.5" gradientUnits="userSpaceOnUse">
<stop stop-color="#888585"/>
<stop offset="1" stop-color="#080808"/>
</linearGradient>
<clipPath id="clip0_197_450">
<rect width="100" height="50" fill="white"/>
</clipPath>
<clipPath id="clip1_197_450">
<rect width="30" height="30" fill="white" transform="matrix(-0.941101 -0.338125 -0.338125 0.941101 93.1885 15.9551)"/>
</clipPath>
</defs>
</svg>
