<svg width="30" height="30" viewBox="0 0 30 30" fill="none" xmlns="http://www.w3.org/2000/svg">
<path d="M25.1062 4.01699C24.0797 2.99043 22.4203 2.99043 21.3937 4.01699L20.25 5.16074L24.8391 9.7498L25.9828 8.60606C27.0094 7.57949 27.0094 5.92012 25.9828 4.89355L25.1062 4.01699ZM11.0812 14.3295C10.7953 14.6154 10.575 14.967 10.4484 15.3561L9.06094 19.5186C8.925 19.9217 9.03281 20.367 9.33281 20.6717C9.63281 20.9764 10.0781 21.0795 10.4859 20.9436L14.6484 19.5561C15.0328 19.4295 15.3844 19.2092 15.675 18.9232L23.25 11.3389L18.6609 6.7498L11.0812 14.3295ZM7.5 5.9998C5.01562 5.9998 3 8.01543 3 10.4998V22.4998C3 24.9842 5.01562 26.9998 7.5 26.9998H19.5C21.9844 26.9998 24 24.9842 24 22.4998V17.9998C24 17.1701 23.3297 16.4998 22.5 16.4998C21.6703 16.4998 21 17.1701 21 17.9998V22.4998C21 23.3295 20.3297 23.9998 19.5 23.9998H7.5C6.67031 23.9998 6 23.3295 6 22.4998V10.4998C6 9.67012 6.67031 8.9998 7.5 8.9998H12C12.8297 8.9998 13.5 8.32949 13.5 7.4998C13.5 6.67012 12.8297 5.9998 12 5.9998H7.5Z" fill="white"/>
</svg>
