<svg width="30" height="30" viewBox="0 0 30 30" fill="none" xmlns="http://www.w3.org/2000/svg">
<path d="M15.0141 9.60977C12.0375 9.60039 9.61875 12.0098 9.60938 14.9863C9.6 17.9629 12.0094 20.3816 14.9859 20.391C17.9625 20.4004 20.3813 17.991 20.3906 15.0145C20.4 12.0379 17.9906 9.61914 15.0141 9.60977ZM14.9859 11.5035C16.9172 11.4941 18.4875 13.0551 18.4969 14.9863C18.5063 16.9176 16.9453 18.4879 15.0141 18.4973C13.0828 18.5066 11.5125 16.9457 11.5031 15.0145C11.4937 13.0832 13.0547 11.5129 14.9859 11.5035ZM19.3641 9.38945C19.3641 8.6957 19.9266 8.1332 20.6203 8.1332C21.3141 8.1332 21.8766 8.6957 21.8766 9.38945C21.8766 10.0832 21.3141 10.6457 20.6203 10.6457C19.9266 10.6457 19.3641 10.0832 19.3641 9.38945ZM25.4437 10.6645C25.3641 8.98164 24.9797 7.49102 23.7469 6.26289C22.5188 5.03477 21.0281 4.65039 19.3453 4.56602C17.6109 4.46758 12.4125 4.46758 10.6781 4.56602C9 4.6457 7.50937 5.03008 6.27656 6.2582C5.04375 7.48633 4.66406 8.97695 4.57969 10.6598C4.48125 12.3941 4.48125 17.5926 4.57969 19.327C4.65937 21.0098 5.04375 22.5004 6.27656 23.7285C7.50937 24.9566 8.99531 25.341 10.6781 25.4254C12.4125 25.5238 17.6109 25.5238 19.3453 25.4254C21.0281 25.3457 22.5188 24.9613 23.7469 23.7285C24.975 22.5004 25.3594 21.0098 25.4437 19.327C25.5422 17.5926 25.5422 12.3988 25.4437 10.6645ZM23.2031 21.1879C22.8375 22.1066 22.1297 22.8145 21.2062 23.1848C19.8234 23.7332 16.5422 23.6066 15.0141 23.6066C13.4859 23.6066 10.2 23.7285 8.82187 23.1848C7.90312 22.8191 7.19531 22.1113 6.825 21.1879C6.27656 19.8051 6.40313 16.5238 6.40313 14.9957C6.40313 13.4676 6.28125 10.1816 6.825 8.80352C7.19063 7.88477 7.89844 7.17695 8.82187 6.80664C10.2047 6.2582 13.4859 6.38477 15.0141 6.38477C16.5422 6.38477 19.8281 6.26289 21.2062 6.80664C22.125 7.17227 22.8328 7.88008 23.2031 8.80352C23.7516 10.1863 23.625 13.4676 23.625 14.9957C23.625 16.5238 23.7516 19.8098 23.2031 21.1879Z" fill="white"/>
</svg>
