<svg width="30" height="30" viewBox="0 0 30 30" fill="none" xmlns="http://www.w3.org/2000/svg">
<path d="M3 15C3 8.37188 8.37188 3 15 3C21.6281 3 27 8.37188 27 15C27 21.6281 21.6281 27 15 27H4.73906C4.09687 27 3.77812 26.2266 4.22812 25.7719L6.51562 23.4844C4.34531 21.3141 3 18.3141 3 15ZM19.3875 10.2C20.4937 10.2 21.3891 9.30469 21.3891 8.19844C21.3891 7.09219 20.4937 6.19687 19.3875 6.19687C18.4219 6.19687 17.6156 6.88125 17.4281 7.79062C15.8109 7.96406 14.55 9.3375 14.55 10.9969V11.0063C12.7922 11.0813 11.1844 11.5828 9.90937 12.3703C9.43594 12.0047 8.84062 11.7844 8.19844 11.7844C6.65156 11.7844 5.39531 13.0406 5.39531 14.5875C5.39531 15.7125 6.05625 16.6781 7.00781 17.1234C7.10156 20.3766 10.6453 22.9922 15.0047 22.9922C19.3641 22.9922 22.9125 20.3719 23.0016 17.1188C23.9484 16.6688 24.6 15.7031 24.6 14.5875C24.6 13.0406 23.3438 11.7844 21.7969 11.7844C21.1547 11.7844 20.5641 12 20.0906 12.3656C18.8063 11.5687 17.1797 11.0672 15.4031 11.0016V10.9922C15.4031 9.80156 16.2891 8.8125 17.4375 8.65313C17.6438 9.53438 18.4359 10.1906 19.3828 10.1906L19.3875 10.2ZM11.3016 14.5734C12.0844 14.5734 12.6844 15.3984 12.6375 16.4156C12.5906 17.4328 12.0047 17.8031 11.2172 17.8031C10.4297 17.8031 9.74531 17.3906 9.79219 16.3734C9.83906 15.3562 10.5141 14.5781 11.2969 14.5781L11.3016 14.5734ZM20.2125 16.3688C20.2594 17.3859 19.5703 17.7984 18.7875 17.7984C18.0047 17.7984 17.4141 17.4281 17.3672 16.4109C17.3203 15.3938 17.9203 14.5687 18.7031 14.5687C19.4859 14.5687 20.1656 15.3469 20.2078 16.3641L20.2125 16.3688ZM17.9578 19.0266C17.475 20.1797 16.3359 20.9906 15.0047 20.9906C13.6734 20.9906 12.5344 20.1797 12.0516 19.0266C11.9953 18.8906 12.0891 18.7359 12.2344 18.7219C13.0969 18.6328 14.0297 18.5859 15.0047 18.5859C15.9797 18.5859 16.9125 18.6328 17.775 18.7219C17.9203 18.7359 18.0141 18.8906 17.9578 19.0266Z" fill="white"/>
</svg>
